<svg xmlns="http://www.w3.org/2000/svg" width="34.763" height="35.141"><g fill="none" stroke="#000" stroke-width="1.5" stroke-linecap="round" stroke-linejoin="round"><path d="M17.418 6.396V.766" stroke-linejoin="miter"/><path d="M17.418 19.766s4.5-7.5 3-10.5c0 0-1-2.5-3-2.5s-3 2.5-3 2.5c-1.5 3 3 10.5 3 10.5" fill="#000" stroke-linecap="butt" stroke-linejoin="miter"/><path d="M6.418 31.766c5.5 3.5 15.5 3.5 21 0v-7s9-4.5 6-10.5c-4-6.5-13.5-3.5-16 4v3.5-3.5c-3.5-7.5-13-10.5-16-4-3 6 5 10 5 10v7.5z" fill="#000"/><path d="M14.918 2.766h5" stroke-linejoin="miter"/><path d="M26.918 24.266s8.5-4 6.03-9.65c-3.88-5.85-13.03-1.85-15.53 4.65l.01 2.1-.01-2.1c-2.5-6.5-12.594-10.5-15.503-4.65-2.497 5.65 4.853 9 4.853 9" stroke="#fff"/><path d="M6.418 24.766c5.5-3 15.5-3 21 0m-21 3.5c5.5-3 15.5-3 21 0m-21 3.5c5.5-3 15.5-3 21 0" stroke="#fff"/></g></svg>